<svg width="105" height="22" viewBox="0 0 105 22" fill="none" xmlns="http://www.w3.org/2000/svg">
<path d="M96.3518 7.752L103.632 11.192V12.008L96.3518 15.416V14.568L102.752 11.608V11.592L96.3518 8.616V7.752Z" fill="white"/>
<path d="M47.4718 8.248L48.0318 7.912C48.7891 9.24533 49.5464 10.5787 50.3038 11.912C50.5918 11.1547 50.8371 10.3813 51.0398 9.592C51.2744 8.64267 51.4611 7.67733 51.5998 6.696H47.2478V6.008H52.3198V6.696C52.0531 8.776 51.5251 10.776 50.7358 12.696C51.3651 13.8373 51.9944 14.9787 52.6238 16.12L52.0158 16.472L50.3838 13.464C49.5838 15.096 48.6238 16.6213 47.5038 18.04L46.9278 17.576C48.1438 16.0827 49.1571 14.456 49.9678 12.696C49.1358 11.2133 48.3038 9.73067 47.4718 8.248ZM53.2958 5.208H60.1758V14.024H59.4878V5.896H53.9998V14.024H53.2958V5.208ZM51.2798 18.168C52.1544 17.6667 52.9811 17.1067 53.7598 16.488C54.2078 16.0827 54.6131 15.6347 54.9758 15.144C55.4131 14.5147 55.7331 13.8267 55.9358 13.08C56.1384 12.2267 56.2504 11.3573 56.2718 10.472C56.3038 9.33067 56.3251 8.17867 56.3358 7.016H57.0558L56.9918 10.552C56.9704 11.4907 56.8424 12.4133 56.6078 13.32C56.3838 14.1093 56.0371 14.8453 55.5678 15.528C55.1838 16.04 54.7518 16.5147 54.2718 16.952C53.4718 17.6133 52.6238 18.2107 51.7278 18.744L51.2798 18.168ZM56.7838 12.872H57.4718V16.296C57.4611 16.4987 57.4771 16.696 57.5198 16.888C57.5411 16.984 57.5891 17.0693 57.6638 17.144C57.7598 17.2507 57.8771 17.3147 58.0158 17.336C58.2078 17.3787 58.4051 17.4 58.6078 17.4H59.3918C59.6051 17.4 59.8184 17.384 60.0318 17.352C60.1491 17.32 60.2504 17.2773 60.3358 17.224C60.4424 17.1387 60.5171 17.0373 60.5598 16.92C60.6024 16.728 60.6291 16.536 60.6398 16.344C60.6504 15.5867 60.6664 14.824 60.6878 14.056L61.3598 14.2C61.3384 14.9893 61.3171 15.7733 61.2958 16.552C61.2851 16.8293 61.2424 17.0907 61.1678 17.336C61.1038 17.5173 60.9971 17.672 60.8478 17.8C60.7091 17.896 60.5651 17.96 60.4158 17.992C60.1171 18.056 59.8184 18.088 59.5198 18.088H58.3678C58.1011 18.088 57.8398 18.056 57.5838 17.992C57.3918 17.9493 57.2264 17.8533 57.0878 17.704C56.9918 17.5867 56.9171 17.4533 56.8638 17.304C56.7998 17.048 56.7731 16.7813 56.7838 16.504V12.872Z" fill="white"/>
<path d="M72.7359 10.728H82.3999V15.528H81.6479V11.416H73.4719V15.528H72.7359V10.728ZM77.8399 13.864H78.5599V16.184C78.5492 16.3973 78.5705 16.6053 78.6239 16.808C78.6665 16.9467 78.7519 17.064 78.8799 17.16C78.9865 17.2347 79.1039 17.288 79.2319 17.32C79.4665 17.3627 79.7065 17.384 79.9519 17.384H81.9359C82.2132 17.384 82.4905 17.3627 82.7679 17.32C82.9065 17.2987 83.0345 17.256 83.1519 17.192C83.2799 17.096 83.3705 16.9787 83.4239 16.84C83.4879 16.6373 83.5252 16.4293 83.5359 16.216C83.5679 15.64 83.5892 15.0533 83.5999 14.456L84.3679 14.584C84.3359 15.2027 84.3092 15.8107 84.2879 16.408C84.2665 16.7067 84.2079 16.9893 84.1119 17.256C84.0479 17.416 83.9519 17.5547 83.8239 17.672C83.6319 17.832 83.4132 17.9333 83.1679 17.976C82.8159 18.04 82.4639 18.072 82.1119 18.072H79.7439C79.4239 18.072 79.1092 18.04 78.7999 17.976C78.5759 17.9227 78.3785 17.816 78.2079 17.656C78.0905 17.528 78.0052 17.384 77.9519 17.224C77.8665 16.9467 77.8292 16.6587 77.8399 16.36V13.864ZM76.3519 9.144C77.5679 7.672 78.5119 6.04 79.1839 4.248L79.8879 4.488C79.6852 5.032 79.4612 5.55467 79.2159 6.056H84.7519V6.744H78.8639C78.3199 7.768 77.6852 8.71733 76.9599 9.592L76.3519 9.144ZM70.4799 17.992C71.3012 17.7893 72.1172 17.56 72.9279 17.304C73.7065 17.0587 74.4479 16.7333 75.1519 16.328C75.6319 16.0293 76.0425 15.6507 76.3839 15.192C76.6505 14.7867 76.8372 14.344 76.9439 13.864C77.0505 13.2987 77.1145 12.7227 77.1359 12.136H77.8879C77.8452 12.8293 77.7545 13.5067 77.6159 14.168C77.4985 14.7547 77.2692 15.2827 76.9279 15.752C76.6292 16.1147 76.2932 16.4347 75.9199 16.712C75.2479 17.1387 74.5439 17.4907 73.8079 17.768C72.7839 18.1413 71.7492 18.4613 70.7039 18.728L70.4799 17.992ZM75.1199 4.312H75.8719V9.976H75.1199V4.312ZM71.6639 4.968H72.4159V9.864H71.6639V4.968ZM79.4079 7.88L79.8079 7.32C81.0665 8.024 82.3199 8.744 83.5679 9.48L83.1519 10.072C81.9039 9.336 80.6559 8.60533 79.4079 7.88Z" fill="white"/>
<path d="M11.504 9.992H14.752V4.408H15.424V9.992H18.896V10.664H15.424V12.328L15.888 11.864C16.912 12.8027 17.936 13.7467 18.96 14.696L18.464 15.176C17.4507 14.2267 16.4373 13.2773 15.424 12.328V16.648H14.752V11.736C13.9307 13.1547 12.9067 14.392 11.68 15.448L11.344 14.824C12.0907 14.2053 12.7573 13.512 13.344 12.744C13.8453 12.0933 14.2773 11.4 14.64 10.664H11.504V9.992ZM10.24 5.016H10.912V17.16H19.216V17.848H10.24V5.016ZM5.104 13.416C5.24267 13.3733 5.376 13.3147 5.504 13.24C5.58933 13.176 5.65867 13.1013 5.712 13.016C6.45867 11.96 7.15733 10.8667 7.808 9.736L5.456 9.864C5.264 9.896 5.08267 9.93333 4.912 9.976L4.768 9.288C4.93867 9.24533 5.08267 9.14933 5.2 9C5.65867 8.328 6.07467 7.624 6.448 6.888C6.85333 6.088 7.22667 5.272 7.568 4.44L8.224 4.664C7.88267 5.464 7.51467 6.248 7.12 7.016C6.72533 7.77333 6.29333 8.50933 5.824 9.224L8.176 9.096C8.51733 8.47733 8.848 7.84267 9.168 7.192L9.76 7.448C8.77867 9.464 7.648 11.3893 6.368 13.224C7.37067 13.0853 8.37333 12.9253 9.376 12.744L9.424 13.416L5.952 13.944L5.264 14.104L5.104 13.416ZM9.808 16.44C8.10133 16.7493 6.40533 17.0693 4.72 17.4L4.64 16.696C6.336 16.3867 8.032 16.0613 9.728 15.72L9.76 16.056L9.808 16.44ZM16.272 8.616C16.912 7.688 17.5147 6.72267 18.08 5.72L18.656 5.992C18.08 6.99467 17.4667 7.96533 16.816 8.904L16.272 8.616ZM11.52 5.992L12.064 5.688C12.672 6.65867 13.264 7.63467 13.84 8.616L13.296 8.904C12.72 7.92267 12.128 6.952 11.52 5.992Z" fill="white"/>
<path d="M29.944 18.024C30.68 17.8213 31.4107 17.5867 32.136 17.32C32.552 17.1493 32.9573 16.9627 33.352 16.76C33.7787 16.5147 34.168 16.2213 34.52 15.88C34.808 15.5707 35.0427 15.224 35.224 14.84H30.488V14.216H35.464C35.6027 13.608 35.6827 12.984 35.704 12.344C35.7253 11.4267 35.7413 10.4987 35.752 9.56H36.424L36.36 12.28C36.3493 12.9413 36.2693 13.5867 36.12 14.216H40.2V14.84H35.928C35.864 15.0427 35.784 15.2293 35.688 15.4C37.096 16.2213 38.5093 17.0427 39.928 17.864L39.56 18.44C38.1627 17.576 36.76 16.7387 35.352 15.928C34.872 16.536 34.2853 17.016 33.592 17.368C33.112 17.624 32.616 17.848 32.104 18.04C31.4747 18.2747 30.84 18.4827 30.2 18.664L29.944 18.024ZM30.856 8.44H34.92V6.616H31.432V6.008H34.92V4.232H35.608V6.008H39.432V6.616H35.608V8.44H39.672V9.048L38.488 11.304L37.912 11.096L38.984 9.08H30.856V8.44ZM26.168 13.384C26.4453 13.2987 26.68 13.1387 26.872 12.904C27.5973 11.9013 28.2853 10.8667 28.936 9.8C28.136 9.85333 27.3413 9.896 26.552 9.928C26.36 9.96 26.1733 9.99733 25.992 10.04L25.832 9.384C26.0133 9.34133 26.1627 9.24 26.28 9.08C26.7067 8.49333 27.0853 7.87467 27.416 7.224C27.896 6.328 28.3387 5.41067 28.744 4.472L29.352 4.712C28.9573 5.61867 28.5307 6.504 28.072 7.368C27.72 8.02933 27.3413 8.664 26.936 9.272C27.7253 9.21867 28.52 9.17067 29.32 9.128C29.672 8.52 30.008 7.89067 30.328 7.24L30.904 7.512C29.912 9.48533 28.776 11.3627 27.496 13.144C28.5307 12.9947 29.5707 12.8453 30.616 12.696L30.632 13.352C29.4373 13.5227 28.248 13.6933 27.064 13.864C26.8293 13.9067 26.6 13.96 26.376 14.024L26.168 13.384ZM31.016 16.376C29.2667 16.6853 27.528 16.9947 25.8 17.304L25.704 16.616C27.4533 16.3173 29.2027 16.0027 30.952 15.672L30.984 16.056L31.016 16.376ZM31.144 11.992L31.432 11.496C32.3493 12.04 33.2667 12.584 34.184 13.128L33.912 13.624C32.9947 13.0693 32.072 12.5253 31.144 11.992ZM31.944 10.184L32.2 9.688C33.0853 10.1893 33.9707 10.696 34.856 11.208L34.584 11.736C33.7093 11.2133 32.8293 10.696 31.944 10.184Z" fill="white"/>
</svg>
